# xmcd
#
# Track frame offsets:
#	150
#	17922
#	36101
#	50408
#	68051
#	81511
#	97597
#	115445
#	131905
#	151219
#
# Disc length: 2191 seconds
#
# Revision: 0
# Processed by: cddbd v1.5.1PL0 Copyright (c) Steve Scherf et al.
# Submitted via: audiograbber 1.83.01
#
DISCID=7f088d0a
DTITLE=Melonie Cannon - Melonie Cannon
DYEAR=2004
DGENRE=Country
TTITLE0=Nothing To Loose
TTITLE1=Tennessee Roads
TTITLE2=I Feel You Everywhere
TTITLE3=What Took You So Long
TTITLE4=Westbound Trains
TTITLE5=Sweeter Than Sugarcane
TTITLE6=Whiskey Lullabye
TTITLE7=Separate Ways
TTITLE8=I'll Be Back
TTITLE9=Nobody Hops A Train Anymore
EXTD=
EXTT0=
EXTT1=
EXTT2=
EXTT3=
EXTT4=
EXTT5=
EXTT6=
EXTT7=
EXTT8=
EXTT9=
PLAYORDER=
